# MagicaVoxel @ Ephtracy

# group
o 

# material
mtllib Campfire.mtl
usemtl palette

# normals
vn -1 0 0
vn 1 0 0
vn 0 0 1
vn 0 0 -1
vn 0 -1 0
vn 0 1 0

# texcoords
vt 0.939453 0.5
vt 0.947266 0.5
vt 0.974609 0.5

# verts
v -0.3 0 0.2
v -0.3 0 -0.1
v -0.3 0.1 0.2
v -0.3 0.1 -0.1
v -0.2 0 0.3
v -0.2 0 0.2
v -0.2 0 -0.1
v -0.2 0 -0.2
v -0.2 0.1 0.3
v -0.2 0.1 0.2
v -0.2 0.1 0.1
v -0.2 0.1 -2.98023e-08
v -0.2 0.1 -0.1
v -0.2 0.1 -0.2
v -0.2 0.2 0.2
v -0.2 0.2 0.1
v -0.2 0.2 -2.98023e-08
v -0.2 0.2 -0.1
v -0.2 0.3 0.1
v -0.2 0.3 -2.98023e-08
v -0.1 0.2 0.2
v -0.1 0.2 0.1
v -0.1 0.2 -2.98023e-08
v -0.1 0.2 -0.1
v -0.1 0.3 0.2
v -0.1 0.3 0.1
v -0.1 0.3 -2.98023e-08
v -0.1 0.4 0.1
v -0.1 0.4 -2.98023e-08
v -0.1 0.4 -0.1
v -0.1 0.5 0.1
v -0.1 0.5 -2.98023e-08
v 2.98023e-08 0.2 0.2
v 2.98023e-08 0.2 0.1
v 2.98023e-08 0.2 -2.98023e-08
v 2.98023e-08 0.2 -0.1
v 2.98023e-08 0.3 0.2
v 2.98023e-08 0.3 0.1
v 2.98023e-08 0.3 -2.98023e-08
v 2.98023e-08 0.4 0.1
v 2.98023e-08 0.4 -2.98023e-08
v 2.98023e-08 0.4 -0.1
v 2.98023e-08 0.5 0.1
v 2.98023e-08 0.5 -2.98023e-08
v 0.1 0 0.3
v 0.1 0 0.2
v 0.1 0 -0.1
v 0.1 0 -0.2
v 0.1 0.1 0.3
v 0.1 0.1 0.2
v 0.1 0.1 0.1
v 0.1 0.1 -2.98023e-08
v 0.1 0.1 -0.1
v 0.1 0.1 -0.2
v 0.1 0.2 0.2
v 0.1 0.2 0.1
v 0.1 0.2 -2.98023e-08
v 0.1 0.2 -0.1
v 0.1 0.3 0.1
v 0.1 0.3 -2.98023e-08
v 0.1 0.4 0.1
v 0.1 0.4 -2.98023e-08
v 0.2 0 0.2
v 0.2 0 -0.1
v 0.2 0.1 0.2
v 0.2 0.1 -0.1
v -0.2 0 0.3
v -0.2 0.1 0.3
v 0.1 0 0.3
v 0.1 0.1 0.3
v -0.3 0 0.2
v -0.3 0.1 0.2
v -0.2 0 0.2
v -0.2 0.1 0.2
v -0.2 0.2 0.2
v -0.1 0.1 0.2
v -0.1 0.2 0.2
v -0.1 0.3 0.2
v 2.98023e-08 0.1 0.2
v 2.98023e-08 0.2 0.2
v 2.98023e-08 0.3 0.2
v 0.1 0 0.2
v 0.1 0.1 0.2
v 0.1 0.2 0.2
v 0.2 0 0.2
v 0.2 0.1 0.2
v -0.2 0.2 0.1
v -0.2 0.3 0.1
v -0.1 0.2 0.1
v -0.1 0.3 0.1
v -0.1 0.4 0.1
v -0.1 0.5 0.1
v 2.98023e-08 0.2 0.1
v 2.98023e-08 0.3 0.1
v 2.98023e-08 0.4 0.1
v 2.98023e-08 0.5 0.1
v 0.1 0.2 0.1
v 0.1 0.3 0.1
v 0.1 0.4 0.1
v -0.2 0.2 -2.98023e-08
v -0.2 0.3 -2.98023e-08
v -0.1 0.2 -2.98023e-08
v -0.1 0.3 -2.98023e-08
v -0.1 0.4 -2.98023e-08
v -0.1 0.5 -2.98023e-08
v 2.98023e-08 0.2 -2.98023e-08
v 2.98023e-08 0.3 -2.98023e-08
v 2.98023e-08 0.4 -2.98023e-08
v 2.98023e-08 0.5 -2.98023e-08
v 0.1 0.2 -2.98023e-08
v 0.1 0.3 -2.98023e-08
v 0.1 0.4 -2.98023e-08
v -0.3 0 -0.1
v -0.3 0.1 -0.1
v -0.2 0 -0.1
v -0.2 0.1 -0.1
v -0.2 0.2 -0.1
v -0.1 0.1 -0.1
v -0.1 0.2 -0.1
v -0.1 0.4 -0.1
v 2.98023e-08 0.1 -0.1
v 2.98023e-08 0.2 -0.1
v 2.98023e-08 0.4 -0.1
v 0.1 0 -0.1
v 0.1 0.1 -0.1
v 0.1 0.2 -0.1
v 0.2 0 -0.1
v 0.2 0.1 -0.1
v -0.2 0 -0.2
v -0.2 0.1 -0.2
v 0.1 0 -0.2
v 0.1 0.1 -0.2
v -0.2 0 0.3
v 0.1 0 0.3
v -0.3 0 0.2
v -0.2 0 0.2
v 0.1 0 0.2
v 0.2 0 0.2
v -0.3 0 -0.1
v -0.2 0 -0.1
v 0.1 0 -0.1
v 0.2 0 -0.1
v -0.2 0 -0.2
v 0.1 0 -0.2
v -0.2 0.1 0.3
v 0.1 0.1 0.3
v -0.3 0.1 0.2
v -0.2 0.1 0.2
v -0.1 0.1 0.2
v 2.98023e-08 0.1 0.2
v 0.1 0.1 0.2
v 0.2 0.1 0.2
v -0.2 0.1 0.1
v 0.1 0.1 0.1
v -0.2 0.1 -2.98023e-08
v 0.1 0.1 -2.98023e-08
v -0.3 0.1 -0.1
v -0.2 0.1 -0.1
v -0.1 0.1 -0.1
v 2.98023e-08 0.1 -0.1
v 0.1 0.1 -0.1
v 0.2 0.1 -0.1
v -0.2 0.1 -0.2
v 0.1 0.1 -0.2
v -0.2 0.2 0.2
v -0.1 0.2 0.2
v 2.98023e-08 0.2 0.2
v 0.1 0.2 0.2
v -0.2 0.2 0.1
v -0.1 0.2 0.1
v 2.98023e-08 0.2 0.1
v 0.1 0.2 0.1
v -0.2 0.2 -2.98023e-08
v -0.1 0.2 -2.98023e-08
v 2.98023e-08 0.2 -2.98023e-08
v 0.1 0.2 -2.98023e-08
v -0.2 0.2 -0.1
v -0.1 0.2 -0.1
v 2.98023e-08 0.2 -0.1
v 0.1 0.2 -0.1
v -0.1 0.3 0.2
v 2.98023e-08 0.3 0.2
v -0.2 0.3 0.1
v -0.1 0.3 0.1
v 2.98023e-08 0.3 0.1
v -0.2 0.3 -2.98023e-08
v -0.1 0.3 -2.98023e-08
v 2.98023e-08 0.4 0.1
v 0.1 0.4 0.1
v -0.1 0.4 -2.98023e-08
v 2.98023e-08 0.4 -2.98023e-08
v 0.1 0.4 -2.98023e-08
v -0.1 0.4 -0.1
v 2.98023e-08 0.4 -0.1
v -0.1 0.5 0.1
v 2.98023e-08 0.5 0.1
v -0.1 0.5 -2.98023e-08
v 2.98023e-08 0.5 -2.98023e-08

# faces
f 3/3/1 2/3/1 1/3/1
f 4/3/1 2/3/1 3/3/1
f 9/3/1 6/3/1 5/3/1
f 10/3/1 6/3/1 9/3/1
f 13/3/1 8/3/1 7/3/1
f 14/3/1 8/3/1 13/3/1
f 15/1/1 11/1/1 10/1/1
f 16/2/1 12/2/1 11/2/1
f 16/1/1 11/1/1 15/1/1
f 17/1/1 13/1/1 12/1/1
f 17/2/1 12/2/1 16/2/1
f 18/1/1 13/1/1 17/1/1
f 19/1/1 17/1/1 16/1/1
f 20/1/1 17/1/1 19/1/1
f 25/1/1 22/1/1 21/1/1
f 26/1/1 22/1/1 25/1/1
f 27/1/1 24/1/1 23/1/1
f 28/2/1 27/2/1 26/2/1
f 29/1/1 24/1/1 27/1/1
f 29/2/1 27/2/1 28/2/1
f 30/1/1 24/1/1 29/1/1
f 31/1/1 29/1/1 28/1/1
f 32/1/1 29/1/1 31/1/1
f 33/1/2 34/1/2 37/1/2
f 37/1/2 34/1/2 38/1/2
f 35/1/2 36/1/2 39/1/2
f 39/1/2 36/1/2 41/1/2
f 41/1/2 36/1/2 42/1/2
f 40/1/2 41/1/2 43/1/2
f 43/1/2 41/1/2 44/1/2
f 45/3/2 46/3/2 49/3/2
f 49/3/2 46/3/2 50/3/2
f 47/3/2 48/3/2 53/3/2
f 53/3/2 48/3/2 54/3/2
f 50/1/2 51/1/2 55/1/2
f 51/2/2 52/2/2 56/2/2
f 55/1/2 51/1/2 56/1/2
f 52/1/2 53/1/2 57/1/2
f 56/2/2 52/2/2 57/2/2
f 57/1/2 53/1/2 58/1/2
f 56/2/2 57/2/2 59/2/2
f 59/2/2 57/2/2 60/2/2
f 59/1/2 60/1/2 61/1/2
f 61/1/2 60/1/2 62/1/2
f 63/3/2 64/3/2 65/3/2
f 65/3/2 64/3/2 66/3/2
f 69/3/3 68/3/3 67/3/3
f 70/3/3 68/3/3 69/3/3
f 73/3/3 72/3/3 71/3/3
f 74/3/3 72/3/3 73/3/3
f 76/1/3 75/1/3 74/1/3
f 77/1/3 75/1/3 76/1/3
f 79/2/3 77/2/3 76/2/3
f 80/1/3 78/1/3 77/1/3
f 80/2/3 77/2/3 79/2/3
f 81/1/3 78/1/3 80/1/3
f 83/1/3 80/1/3 79/1/3
f 84/1/3 80/1/3 83/1/3
f 85/3/3 83/3/3 82/3/3
f 86/3/3 83/3/3 85/3/3
f 89/1/3 88/1/3 87/1/3
f 90/1/3 88/1/3 89/1/3
f 94/2/3 91/2/3 90/2/3
f 95/1/3 92/1/3 91/1/3
f 95/2/3 91/2/3 94/2/3
f 96/1/3 92/1/3 95/1/3
f 97/2/3 94/2/3 93/2/3
f 98/1/3 95/1/3 94/1/3
f 98/2/3 94/2/3 97/2/3
f 99/1/3 95/1/3 98/1/3
f 100/1/4 101/1/4 102/1/4
f 102/1/4 101/1/4 103/1/4
f 104/1/4 105/1/4 108/1/4
f 108/1/4 105/1/4 109/1/4
f 106/2/4 107/2/4 110/2/4
f 107/1/4 108/1/4 111/1/4
f 110/2/4 107/2/4 111/2/4
f 111/1/4 108/1/4 112/1/4
f 113/3/4 114/3/4 115/3/4
f 115/3/4 114/3/4 116/3/4
f 116/1/4 117/1/4 118/1/4
f 118/1/4 117/1/4 119/1/4
f 118/2/4 119/2/4 121/2/4
f 119/1/4 120/1/4 122/1/4
f 121/2/4 119/2/4 122/2/4
f 122/1/4 120/1/4 123/1/4
f 121/1/4 122/1/4 125/1/4
f 125/1/4 122/1/4 126/1/4
f 124/3/4 125/3/4 127/3/4
f 127/3/4 125/3/4 128/3/4
f 129/3/4 130/3/4 131/3/4
f 131/3/4 130/3/4 132/3/4
f 136/3/5 134/3/5 133/3/5
f 137/3/5 134/3/5 136/3/5
f 139/3/5 136/3/5 135/3/5
f 140/2/5 137/2/5 136/2/5
f 140/3/5 136/3/5 139/3/5
f 141/3/5 138/3/5 137/3/5
f 141/2/5 137/2/5 140/2/5
f 142/3/5 138/3/5 141/3/5
f 143/3/5 141/3/5 140/3/5
f 144/3/5 141/3/5 143/3/5
f 145/3/6 146/3/6 148/3/6
f 148/3/6 146/3/6 149/3/6
f 149/3/6 146/3/6 150/3/6
f 150/3/6 146/3/6 151/3/6
f 147/3/6 148/3/6 153/3/6
f 151/3/6 152/3/6 154/3/6
f 147/3/6 153/3/6 155/3/6
f 154/3/6 152/3/6 156/3/6
f 147/3/6 155/3/6 157/3/6
f 157/3/6 155/3/6 158/3/6
f 156/3/6 152/3/6 161/3/6
f 161/3/6 152/3/6 162/3/6
f 159/3/6 160/3/6 163/3/6
f 160/3/6 161/3/6 163/3/6
f 158/3/6 159/3/6 163/3/6
f 163/3/6 161/3/6 164/3/6
f 165/1/6 166/1/6 169/1/6
f 169/1/6 166/1/6 170/1/6
f 167/1/6 168/1/6 171/1/6
f 171/1/6 168/1/6 172/1/6
f 173/1/6 174/1/6 177/1/6
f 177/1/6 174/1/6 178/1/6
f 175/1/6 176/1/6 179/1/6
f 179/1/6 176/1/6 180/1/6
f 181/1/6 182/1/6 184/1/6
f 184/1/6 182/1/6 185/1/6
f 183/1/6 184/1/6 186/1/6
f 186/1/6 184/1/6 187/1/6
f 188/1/6 189/1/6 191/1/6
f 191/1/6 189/1/6 192/1/6
f 190/1/6 191/1/6 193/1/6
f 193/1/6 191/1/6 194/1/6
f 195/1/6 196/1/6 197/1/6
f 197/1/6 196/1/6 198/1/6
