# MagicaVoxel @ Ephtracy

# group
o 

# material
mtllib CraftingTable.mtl
usemtl palette

# normals
vn -1 0 0
vn 1 0 0
vn 0 0 1
vn 0 0 -1
vn 0 -1 0
vn 0 1 0

# texcoords
vt 0.974609 0.5
vt 0.990234 0.5

# verts
v -0.6 0.5 0.3
v -0.6 0.5 -0.4
v -0.6 0.6 0.3
v -0.6 0.6 -0.4
v -0.5 0 0.2
v -0.5 0 -0.3
v -0.5 0.5 0.2
v -0.5 0.5 -0.3
v 0.1 0.3 0.2
v 0.1 0.3 -2.98023e-08
v 0.1 0.3 -0.1
v 0.1 0.3 -0.3
v 0.1 0.4 0.2
v 0.1 0.4 -2.98023e-08
v 0.1 0.4 -0.1
v 0.1 0.4 -0.3
v 0.2 0 0.2
v 0.2 0 -0.3
v 0.2 0.1 -2.98023e-08
v 0.2 0.1 -0.1
v 0.2 0.3 0.2
v 0.2 0.3 -2.98023e-08
v 0.2 0.3 -0.1
v 0.2 0.3 -0.3
v -0.3 0 0.2
v -0.3 0 -0.3
v -0.3 0.1 -2.98023e-08
v -0.3 0.1 -0.1
v -0.3 0.3 0.2
v -0.3 0.3 -2.98023e-08
v -0.3 0.3 -0.1
v -0.3 0.3 -0.3
v -0.2 0.3 0.2
v -0.2 0.3 -2.98023e-08
v -0.2 0.3 -0.1
v -0.2 0.3 -0.3
v -0.2 0.4 0.2
v -0.2 0.4 -2.98023e-08
v -0.2 0.4 -0.1
v -0.2 0.4 -0.3
v 0.4 0 0.2
v 0.4 0 -0.3
v 0.4 0.5 0.2
v 0.4 0.5 -0.3
v 0.5 0.5 0.3
v 0.5 0.5 -0.4
v 0.5 0.6 0.3
v 0.5 0.6 -0.4
v -0.6 0.5 0.3
v -0.6 0.6 0.3
v 0.5 0.5 0.3
v 0.5 0.6 0.3
v -0.5 0 0.2
v -0.5 0.5 0.2
v -0.3 0 0.2
v -0.3 0.3 0.2
v -0.2 0.3 0.2
v -0.2 0.4 0.2
v 0.1 0.3 0.2
v 0.1 0.4 0.2
v 0.2 0 0.2
v 0.2 0.3 0.2
v 0.4 0 0.2
v 0.4 0.5 0.2
v -0.3 0.1 -2.98023e-08
v -0.3 0.3 -2.98023e-08
v -0.2 0.3 -2.98023e-08
v -0.2 0.4 -2.98023e-08
v 0.1 0.3 -2.98023e-08
v 0.1 0.4 -2.98023e-08
v 0.2 0.1 -2.98023e-08
v 0.2 0.3 -2.98023e-08
v -0.3 0.1 -0.1
v -0.3 0.3 -0.1
v -0.2 0.3 -0.1
v -0.2 0.4 -0.1
v 0.1 0.3 -0.1
v 0.1 0.4 -0.1
v 0.2 0.1 -0.1
v 0.2 0.3 -0.1
v -0.5 0 -0.3
v -0.5 0.5 -0.3
v -0.3 0 -0.3
v -0.3 0.3 -0.3
v -0.2 0.3 -0.3
v -0.2 0.4 -0.3
v 0.1 0.3 -0.3
v 0.1 0.4 -0.3
v 0.2 0 -0.3
v 0.2 0.3 -0.3
v 0.4 0 -0.3
v 0.4 0.5 -0.3
v -0.6 0.5 -0.4
v -0.6 0.6 -0.4
v 0.5 0.5 -0.4
v 0.5 0.6 -0.4
v -0.5 0 0.2
v -0.3 0 0.2
v 0.2 0 0.2
v 0.4 0 0.2
v -0.5 0 -0.3
v -0.3 0 -0.3
v 0.2 0 -0.3
v 0.4 0 -0.3
v -0.3 0.1 -2.98023e-08
v 0.2 0.1 -2.98023e-08
v -0.3 0.1 -0.1
v 0.2 0.1 -0.1
v -0.3 0.3 0.2
v -0.2 0.3 0.2
v 0.1 0.3 0.2
v 0.2 0.3 0.2
v -0.3 0.3 -2.98023e-08
v -0.2 0.3 -2.98023e-08
v 0.1 0.3 -2.98023e-08
v 0.2 0.3 -2.98023e-08
v -0.3 0.3 -0.1
v -0.2 0.3 -0.1
v 0.1 0.3 -0.1
v 0.2 0.3 -0.1
v -0.3 0.3 -0.3
v -0.2 0.3 -0.3
v 0.1 0.3 -0.3
v 0.2 0.3 -0.3
v -0.2 0.4 0.2
v 0.1 0.4 0.2
v -0.2 0.4 -2.98023e-08
v 0.1 0.4 -2.98023e-08
v -0.2 0.4 -0.1
v 0.1 0.4 -0.1
v -0.2 0.4 -0.3
v 0.1 0.4 -0.3
v -0.6 0.5 0.3
v 0.5 0.5 0.3
v -0.5 0.5 0.2
v 0.4 0.5 0.2
v -0.5 0.5 -0.3
v 0.4 0.5 -0.3
v -0.6 0.5 -0.4
v 0.5 0.5 -0.4
v -0.6 0.6 0.3
v 0.5 0.6 0.3
v -0.5 0.6 0.2
v 0.4 0.6 0.2
v -0.5 0.6 -0.3
v 0.4 0.6 -0.3
v -0.6 0.6 -0.4
v 0.5 0.6 -0.4

# faces
f 3/1/1 2/1/1 1/1/1
f 4/1/1 2/1/1 3/1/1
f 7/1/1 6/1/1 5/1/1
f 8/1/1 6/1/1 7/1/1
f 13/1/1 10/1/1 9/1/1
f 14/1/1 10/1/1 13/1/1
f 15/1/1 12/1/1 11/1/1
f 16/1/1 12/1/1 15/1/1
f 19/1/1 18/1/1 17/1/1
f 20/1/1 18/1/1 19/1/1
f 21/1/1 19/1/1 17/1/1
f 22/1/1 19/1/1 21/1/1
f 23/1/1 18/1/1 20/1/1
f 24/1/1 18/1/1 23/1/1
f 25/1/2 26/1/2 27/1/2
f 27/1/2 26/1/2 28/1/2
f 25/1/2 27/1/2 29/1/2
f 29/1/2 27/1/2 30/1/2
f 28/1/2 26/1/2 31/1/2
f 31/1/2 26/1/2 32/1/2
f 33/1/2 34/1/2 37/1/2
f 37/1/2 34/1/2 38/1/2
f 35/1/2 36/1/2 39/1/2
f 39/1/2 36/1/2 40/1/2
f 41/1/2 42/1/2 43/1/2
f 43/1/2 42/1/2 44/1/2
f 45/1/2 46/1/2 47/1/2
f 47/1/2 46/1/2 48/1/2
f 51/1/3 50/1/3 49/1/3
f 52/1/3 50/1/3 51/1/3
f 55/1/3 54/1/3 53/1/3
f 56/1/3 54/1/3 55/1/3
f 57/1/3 54/1/3 56/1/3
f 58/1/3 54/1/3 57/1/3
f 60/1/3 54/1/3 58/1/3
f 62/1/3 60/1/3 59/1/3
f 63/1/3 62/1/3 61/1/3
f 64/1/3 54/1/3 60/1/3
f 64/1/3 62/1/3 63/1/3
f 64/1/3 60/1/3 62/1/3
f 67/2/3 66/2/3 65/2/3
f 69/2/3 67/2/3 65/2/3
f 69/2/3 68/2/3 67/2/3
f 70/2/3 68/2/3 69/2/3
f 71/2/3 69/2/3 65/2/3
f 72/2/3 69/2/3 71/2/3
f 73/2/4 74/2/4 75/2/4
f 73/2/4 75/2/4 77/2/4
f 75/2/4 76/2/4 77/2/4
f 77/2/4 76/2/4 78/2/4
f 73/2/4 77/2/4 79/2/4
f 79/2/4 77/2/4 80/2/4
f 81/1/4 82/1/4 83/1/4
f 83/1/4 82/1/4 84/1/4
f 84/1/4 82/1/4 85/1/4
f 85/1/4 82/1/4 86/1/4
f 86/1/4 82/1/4 88/1/4
f 87/1/4 88/1/4 90/1/4
f 89/1/4 90/1/4 91/1/4
f 88/1/4 82/1/4 92/1/4
f 91/1/4 90/1/4 92/1/4
f 90/1/4 88/1/4 92/1/4
f 93/1/4 94/1/4 95/1/4
f 95/1/4 94/1/4 96/1/4
f 101/1/5 98/1/5 97/1/5
f 102/1/5 98/1/5 101/1/5
f 103/1/5 100/1/5 99/1/5
f 104/1/5 100/1/5 103/1/5
f 107/2/5 106/2/5 105/2/5
f 108/2/5 106/2/5 107/2/5
f 113/1/5 110/1/5 109/1/5
f 114/1/5 110/1/5 113/1/5
f 115/1/5 112/1/5 111/1/5
f 116/1/5 112/1/5 115/1/5
f 121/1/5 118/1/5 117/1/5
f 122/1/5 118/1/5 121/1/5
f 123/1/5 120/1/5 119/1/5
f 124/1/5 120/1/5 123/1/5
f 127/1/5 126/1/5 125/1/5
f 128/1/5 126/1/5 127/1/5
f 131/1/5 130/1/5 129/1/5
f 132/1/5 130/1/5 131/1/5
f 135/1/5 134/1/5 133/1/5
f 136/1/5 134/1/5 135/1/5
f 137/1/5 135/1/5 133/1/5
f 138/1/5 134/1/5 136/1/5
f 139/1/5 137/1/5 133/1/5
f 139/1/5 138/1/5 137/1/5
f 140/1/5 134/1/5 138/1/5
f 140/1/5 138/1/5 139/1/5
f 141/1/6 142/1/6 143/1/6
f 143/1/6 142/1/6 144/1/6
f 141/1/6 143/1/6 145/1/6
f 143/2/6 144/2/6 145/2/6
f 144/1/6 142/1/6 146/1/6
f 145/2/6 144/2/6 146/2/6
f 141/1/6 145/1/6 147/1/6
f 145/1/6 146/1/6 147/1/6
f 146/1/6 142/1/6 148/1/6
f 147/1/6 146/1/6 148/1/6
