# MagicaVoxel @ Ephtracy

# group
o 

# material
mtllib SimpleBush_FruitsSmall.mtl
usemtl palette

# normals
vn -1 0 0
vn 1 0 0
vn 0 0 1
vn 0 0 -1
vn 0 -1 0
vn 0 1 0

# texcoords
vt 0.943359 0.5
vt 0.970703 0.5

# verts
v -0.6 0.3 -0.2
v -0.6 0.3 -0.3
v -0.6 0.4 -0.2
v -0.6 0.4 -0.3
v -0.5 0.1 0.1
v -0.5 0.1 -0.2
v -0.5 0.2 0.2
v -0.5 0.2 0.1
v -0.5 0.2 -0.2
v -0.5 0.2 -0.3
v -0.5 0.3 -0.2
v -0.5 0.3 -0.3
v -0.5 0.4 0.2
v -0.5 0.4 0.1
v -0.5 0.4 -0.2
v -0.5 0.5 0.1
v -0.5 0.5 -0.2
v -0.4 0 0.2
v -0.4 0 -0.3
v -0.4 0.1 0.3
v -0.4 0.1 0.2
v -0.4 0.1 0.1
v -0.4 0.1 -0.2
v -0.4 0.1 -0.3
v -0.4 0.1 -0.4
v -0.4 0.2 0.2
v -0.4 0.2 0.1
v -0.4 0.2 -0.2
v -0.4 0.2 -0.3
v -0.4 0.4 0.2
v -0.4 0.4 0.1
v -0.4 0.4 -0.2
v -0.4 0.4 -0.3
v -0.4 0.5 0.3
v -0.4 0.5 0.2
v -0.4 0.5 0.1
v -0.4 0.5 -0.2
v -0.4 0.5 -0.3
v -0.4 0.5 -0.4
v -0.4 0.6 0.2
v -0.4 0.6 -0.1
v -0.4 0.6 -0.2
v -0.4 0.6 -0.3
v -0.4 0.7 -0.1
v -0.4 0.7 -0.2
v -0.3 0 0.3
v -0.3 0 0.2
v -0.3 0 -0.3
v -0.3 0 -0.4
v -0.3 0.1 0.3
v -0.3 0.1 0.2
v -0.3 0.1 -0.3
v -0.3 0.1 -0.4
v -0.3 0.2 0.4
v -0.3 0.2 0.3
v -0.3 0.2 -0.4
v -0.3 0.2 -0.5
v -0.3 0.4 0.4
v -0.3 0.4 0.3
v -0.3 0.4 -0.4
v -0.3 0.4 -0.5
v -0.3 0.5 0.3
v -0.3 0.5 0.2
v -0.3 0.5 -0.3
v -0.3 0.5 -0.4
v -0.3 0.6 0.3
v -0.3 0.6 0.2
v -0.3 0.6 0.1
v -0.3 0.6 -0.1
v -0.3 0.6 -0.3
v -0.3 0.6 -0.4
v -0.3 0.7 0.1
v -0.3 0.7 -0.1
v -0.2 0.1 0.4
v -0.2 0.1 0.3
v -0.2 0.1 -0.4
v -0.2 0.1 -0.5
v -0.2 0.2 0.4
v -0.2 0.2 0.3
v -0.2 0.2 -0.4
v -0.2 0.2 -0.5
v -0.2 0.2 -0.6
v -0.2 0.3 0.5
v -0.2 0.3 0.4
v -0.2 0.3 -0.5
v -0.2 0.3 -0.6
v -0.2 0.4 0.5
v -0.2 0.4 0.4
v -0.2 0.4 0.3
v -0.2 0.4 -0.4
v -0.2 0.4 -0.5
v -0.2 0.5 0.4
v -0.2 0.5 0.3
v -0.2 0.5 -0.4
v -0.2 0.5 -0.5
v -0.2 0.6 0.2
v -0.2 0.6 0.1
v -0.2 0.6 -0.2
v -0.2 0.6 -0.3
v -0.2 0.7 0.2
v -0.2 0.7 0.1
v -0.2 0.7 -0.2
v -0.2 0.7 -0.3
v 0 0 0.4
v 0 0 0.3
v 0 0.1 0.4
v 0 0.1 0.3
v 0 0.7 0
v 0 0.7 -0.1
v 0 0.8 0
v 0 0.8 -0.1
v -0.1 0.2 -0.5
v -0.1 0.2 -0.6
v -0.1 0.3 0.5
v -0.1 0.3 0.4
v -0.1 0.3 -0.5
v -0.1 0.3 -0.6
v -0.1 0.4 0.5
v -0.1 0.4 0.4
v 0.1 0 0.4
v 0.1 0 0.3
v 0.1 0.1 0.4
v 0.1 0.1 0.3
v 0.1 0.1 -0.4
v 0.1 0.1 -0.5
v 0.1 0.2 0.4
v 0.1 0.2 0.3
v 0.1 0.2 -0.4
v 0.1 0.2 -0.5
v 0.1 0.4 0.4
v 0.1 0.4 0.3
v 0.1 0.4 -0.4
v 0.1 0.4 -0.5
v 0.1 0.5 0.4
v 0.1 0.5 0.3
v 0.1 0.5 -0.4
v 0.1 0.5 -0.5
v 0.1 0.6 0.2
v 0.1 0.6 0.1
v 0.1 0.6 -0.2
v 0.1 0.6 -0.3
v 0.1 0.7 0.2
v 0.1 0.7 0.1
v 0.1 0.7 0
v 0.1 0.7 -0.1
v 0.1 0.7 -0.2
v 0.1 0.7 -0.3
v 0.1 0.8 0
v 0.1 0.8 -0.1
v 0.2 0 0.3
v 0.2 0 0.2
v 0.2 0 -0.3
v 0.2 0 -0.4
v 0.2 0.1 0.3
v 0.2 0.1 0.2
v 0.2 0.1 -0.3
v 0.2 0.1 -0.4
v 0.2 0.2 0.4
v 0.2 0.2 0.3
v 0.2 0.2 -0.4
v 0.2 0.2 -0.5
v 0.2 0.3 -0.4
v 0.2 0.3 -0.5
v 0.2 0.4 0.4
v 0.2 0.4 0.3
v 0.2 0.5 0.3
v 0.2 0.5 0.2
v 0.2 0.5 -0.3
v 0.2 0.5 -0.4
v 0.2 0.6 0.3
v 0.2 0.6 0.2
v 0.2 0.6 0.1
v 0.2 0.6 -0.2
v 0.2 0.6 -0.3
v 0.2 0.6 -0.4
v 0.2 0.7 0.1
v 0.2 0.7 -0.2
v 0.3 0 0.2
v 0.3 0 -0.3
v 0.3 0.1 0.3
v 0.3 0.1 0.2
v 0.3 0.1 0.1
v 0.3 0.1 -0.2
v 0.3 0.1 -0.3
v 0.3 0.1 -0.4
v 0.3 0.2 0.3
v 0.3 0.2 0.2
v 0.3 0.2 0.1
v 0.3 0.2 -0.2
v 0.3 0.2 -0.3
v 0.3 0.3 0.3
v 0.3 0.3 0.2
v 0.3 0.3 -0.4
v 0.3 0.3 -0.5
v 0.3 0.4 0.2
v 0.3 0.4 0.1
v 0.3 0.4 -0.2
v 0.3 0.4 -0.3
v 0.3 0.4 -0.4
v 0.3 0.4 -0.5
v 0.3 0.5 0.3
v 0.3 0.5 0.2
v 0.3 0.5 0.1
v 0.3 0.5 -0.2
v 0.3 0.5 -0.3
v 0.3 0.5 -0.4
v 0.3 0.6 0.2
v 0.3 0.6 -0.3
v 0.4 0.1 0.1
v 0.4 0.1 -0.1
v 0.4 0.2 0.3
v 0.4 0.2 0.2
v 0.4 0.2 0.1
v 0.4 0.2 -0.1
v 0.4 0.2 -0.2
v 0.4 0.2 -0.3
v 0.4 0.3 0.3
v 0.4 0.3 0.2
v 0.4 0.4 0.2
v 0.4 0.4 0.1
v 0.4 0.4 -0.2
v 0.4 0.4 -0.3
v 0.4 0.5 0.1
v 0.4 0.5 -0.2
v 0.5 0.1 -0.1
v 0.5 0.1 -0.2
v 0.5 0.2 -0.1
v 0.5 0.2 -0.2
v -0.2 0.3 0.5
v -0.2 0.4 0.5
v -0.1 0.3 0.5
v -0.1 0.4 0.5
v -0.3 0.2 0.4
v -0.3 0.4 0.4
v -0.2 0.1 0.4
v -0.2 0.2 0.4
v -0.2 0.3 0.4
v -0.2 0.4 0.4
v -0.2 0.5 0.4
v -0.1 0.3 0.4
v -0.1 0.4 0.4
v 0 0 0.4
v 0 0.1 0.4
v 0.1 0 0.4
v 0.1 0.1 0.4
v 0.1 0.2 0.4
v 0.1 0.4 0.4
v 0.1 0.5 0.4
v 0.2 0.2 0.4
v 0.2 0.4 0.4
v -0.4 0.1 0.3
v -0.4 0.5 0.3
v -0.3 0 0.3
v -0.3 0.1 0.3
v -0.3 0.2 0.3
v -0.3 0.4 0.3
v -0.3 0.5 0.3
v -0.3 0.6 0.3
v -0.2 0.1 0.3
v -0.2 0.2 0.3
v -0.2 0.4 0.3
v -0.2 0.5 0.3
v 0 0 0.3
v 0 0.1 0.3
v 0.1 0 0.3
v 0.1 0.1 0.3
v 0.1 0.2 0.3
v 0.1 0.4 0.3
v 0.1 0.5 0.3
v 0.2 0 0.3
v 0.2 0.1 0.3
v 0.2 0.2 0.3
v 0.2 0.4 0.3
v 0.2 0.5 0.3
v 0.2 0.6 0.3
v 0.3 0.1 0.3
v 0.3 0.2 0.3
v 0.3 0.3 0.3
v 0.3 0.5 0.3
v 0.4 0.2 0.3
v 0.4 0.3 0.3
v -0.5 0.2 0.2
v -0.5 0.4 0.2
v -0.4 0 0.2
v -0.4 0.1 0.2
v -0.4 0.2 0.2
v -0.4 0.4 0.2
v -0.4 0.5 0.2
v -0.4 0.6 0.2
v -0.3 0 0.2
v -0.3 0.1 0.2
v -0.3 0.5 0.2
v -0.3 0.6 0.2
v -0.2 0.6 0.2
v -0.2 0.7 0.2
v 0.1 0.6 0.2
v 0.1 0.7 0.2
v 0.2 0 0.2
v 0.2 0.1 0.2
v 0.2 0.5 0.2
v 0.2 0.6 0.2
v 0.3 0 0.2
v 0.3 0.1 0.2
v 0.3 0.3 0.2
v 0.3 0.4 0.2
v 0.3 0.5 0.2
v 0.3 0.6 0.2
v 0.4 0.3 0.2
v 0.4 0.4 0.2
v -0.5 0.1 0.1
v -0.5 0.2 0.1
v -0.5 0.4 0.1
v -0.5 0.5 0.1
v -0.4 0.1 0.1
v -0.4 0.2 0.1
v -0.4 0.4 0.1
v -0.4 0.5 0.1
v -0.3 0.6 0.1
v -0.3 0.7 0.1
v -0.2 0.6 0.1
v -0.2 0.7 0.1
v 0.1 0.6 0.1
v 0.1 0.7 0.1
v 0.2 0.6 0.1
v 0.2 0.7 0.1
v 0.3 0.1 0.1
v 0.3 0.2 0.1
v 0.3 0.4 0.1
v 0.3 0.5 0.1
v 0.4 0.1 0.1
v 0.4 0.2 0.1
v 0.4 0.4 0.1
v 0.4 0.5 0.1
v 0 0.7 0
v 0 0.8 0
v 0.1 0.7 0
v 0.1 0.8 0
v -0.4 0.6 -0.1
v -0.4 0.7 -0.1
v -0.3 0.6 -0.1
v -0.3 0.7 -0.1
v 0.4 0.1 -0.1
v 0.4 0.2 -0.1
v 0.5 0.1 -0.1
v 0.5 0.2 -0.1
v -0.6 0.3 -0.2
v -0.6 0.4 -0.2
v -0.5 0.3 -0.2
v -0.5 0.4 -0.2
v 0 0.7 -0.1
v 0 0.8 -0.1
v 0.1 0.7 -0.1
v 0.1 0.8 -0.1
v -0.5 0.1 -0.2
v -0.5 0.2 -0.2
v -0.5 0.4 -0.2
v -0.5 0.5 -0.2
v -0.4 0.1 -0.2
v -0.4 0.2 -0.2
v -0.4 0.4 -0.2
v -0.4 0.5 -0.2
v -0.4 0.6 -0.2
v -0.4 0.7 -0.2
v -0.3 0.6 -0.2
v -0.3 0.7 -0.2
v -0.2 0.6 -0.2
v -0.2 0.7 -0.2
v 0.1 0.6 -0.2
v 0.1 0.7 -0.2
v 0.2 0.6 -0.2
v 0.2 0.7 -0.2
v 0.3 0.1 -0.2
v 0.3 0.2 -0.2
v 0.3 0.4 -0.2
v 0.3 0.5 -0.2
v 0.4 0.1 -0.2
v 0.4 0.2 -0.2
v 0.4 0.4 -0.2
v 0.4 0.5 -0.2
v 0.5 0.1 -0.2
v 0.5 0.2 -0.2
v -0.6 0.3 -0.3
v -0.6 0.4 -0.3
v -0.5 0.2 -0.3
v -0.5 0.3 -0.3
v -0.5 0.4 -0.3
v -0.4 0 -0.3
v -0.4 0.1 -0.3
v -0.4 0.2 -0.3
v -0.4 0.4 -0.3
v -0.4 0.5 -0.3
v -0.4 0.6 -0.3
v -0.3 0 -0.3
v -0.3 0.1 -0.3
v -0.3 0.5 -0.3
v -0.3 0.6 -0.3
v -0.2 0.6 -0.3
v -0.2 0.7 -0.3
v 0.1 0.6 -0.3
v 0.1 0.7 -0.3
v 0.2 0 -0.3
v 0.2 0.1 -0.3
v 0.2 0.5 -0.3
v 0.2 0.6 -0.3
v 0.3 0 -0.3
v 0.3 0.1 -0.3
v 0.3 0.2 -0.3
v 0.3 0.4 -0.3
v 0.3 0.5 -0.3
v 0.3 0.6 -0.3
v 0.4 0.2 -0.3
v 0.4 0.4 -0.3
v -0.4 0.1 -0.4
v -0.4 0.5 -0.4
v -0.3 0 -0.4
v -0.3 0.1 -0.4
v -0.3 0.2 -0.4
v -0.3 0.4 -0.4
v -0.3 0.5 -0.4
v -0.3 0.6 -0.4
v -0.2 0.1 -0.4
v -0.2 0.2 -0.4
v -0.2 0.4 -0.4
v -0.2 0.5 -0.4
v 0.1 0.1 -0.4
v 0.1 0.2 -0.4
v 0.1 0.4 -0.4
v 0.1 0.5 -0.4
v 0.2 0 -0.4
v 0.2 0.1 -0.4
v 0.2 0.2 -0.4
v 0.2 0.3 -0.4
v 0.2 0.4 -0.4
v 0.2 0.5 -0.4
v 0.2 0.6 -0.4
v 0.3 0.1 -0.4
v 0.3 0.3 -0.4
v 0.3 0.4 -0.4
v 0.3 0.5 -0.4
v -0.3 0.2 -0.5
v -0.3 0.4 -0.5
v -0.2 0.1 -0.5
v -0.2 0.2 -0.5
v -0.2 0.3 -0.5
v -0.2 0.4 -0.5
v -0.2 0.5 -0.5
v -0.1 0.2 -0.5
v -0.1 0.3 -0.5
v 0.1 0.1 -0.5
v 0.1 0.2 -0.5
v 0.1 0.4 -0.5
v 0.1 0.5 -0.5
v 0.2 0.2 -0.5
v 0.2 0.3 -0.5
v 0.2 0.4 -0.5
v 0.3 0.3 -0.5
v 0.3 0.4 -0.5
v -0.2 0.2 -0.6
v -0.2 0.3 -0.6
v -0.1 0.2 -0.6
v -0.1 0.3 -0.6
v 0 0 0.4
v 0.1 0 0.4
v -0.3 0 0.3
v 0 0 0.3
v 0.1 0 0.3
v 0.2 0 0.3
v -0.4 0 0.2
v -0.3 0 0.2
v 0.2 0 0.2
v 0.3 0 0.2
v -0.4 0 -0.3
v -0.3 0 -0.3
v 0.2 0 -0.3
v 0.3 0 -0.3
v -0.3 0 -0.4
v 0.2 0 -0.4
v -0.2 0.1 0.4
v 0 0.1 0.4
v -0.4 0.1 0.3
v -0.3 0.1 0.3
v -0.2 0.1 0.3
v 0 0.1 0.3
v 0.2 0.1 0.3
v 0.3 0.1 0.3
v -0.4 0.1 0.2
v -0.3 0.1 0.2
v 0.2 0.1 0.2
v 0.3 0.1 0.2
v -0.5 0.1 0.1
v -0.4 0.1 0.1
v 0.3 0.1 0.1
v 0.4 0.1 0.1
v 0.4 0.1 -0.1
v 0.5 0.1 -0.1
v -0.5 0.1 -0.2
v -0.4 0.1 -0.2
v 0.3 0.1 -0.2
v 0.4 0.1 -0.2
v 0.5 0.1 -0.2
v -0.4 0.1 -0.3
v -0.3 0.1 -0.3
v 0.2 0.1 -0.3
v 0.3 0.1 -0.3
v -0.4 0.1 -0.4
v -0.3 0.1 -0.4
v -0.2 0.1 -0.4
v 0.1 0.1 -0.4
v 0.2 0.1 -0.4
v 0.3 0.1 -0.4
v -0.2 0.1 -0.5
v 0.1 0.1 -0.5
v -0.3 0.2 0.4
v -0.2 0.2 0.4
v 0.1 0.2 0.4
v 0.2 0.2 0.4
v -0.3 0.2 0.3
v -0.2 0.2 0.3
v 0.1 0.2 0.3
v 0.2 0.2 0.3
v 0.3 0.2 0.3
v 0.4 0.2 0.3
v -0.5 0.2 0.2
v -0.4 0.2 0.2
v 0.3 0.2 0.2
v 0.4 0.2 0.2
v -0.5 0.2 0.1
v -0.4 0.2 0.1
v 0.3 0.2 0.1
v 0.4 0.2 0.1
v -0.5 0.2 -0.2
v -0.4 0.2 -0.2
v 0.3 0.2 -0.2
v 0.4 0.2 -0.2
v -0.5 0.2 -0.3
v -0.4 0.2 -0.3
v 0.3 0.2 -0.3
v 0.4 0.2 -0.3
v -0.3 0.2 -0.4
v -0.2 0.2 -0.4
v 0.1 0.2 -0.4
v 0.2 0.2 -0.4
v -0.3 0.2 -0.5
v -0.2 0.2 -0.5
v -0.1 0.2 -0.5
v 0.1 0.2 -0.5
v 0.2 0.2 -0.5
v -0.2 0.2 -0.6
v -0.1 0.2 -0.6
v -0.2 0.3 0.5
v -0.1 0.3 0.5
v -0.2 0.3 0.4
v -0.1 0.3 0.4
v -0.6 0.3 -0.2
v -0.5 0.3 -0.2
v -0.6 0.3 -0.3
v -0.5 0.3 -0.3
v 0.2 0.3 -0.4
v 0.3 0.3 -0.4
v 0.2 0.3 -0.5
v 0.3 0.3 -0.5
v 0.4 0.2 -0.1
v 0.5 0.2 -0.1
v 0.4 0.2 -0.2
v 0.5 0.2 -0.2
v 0.3 0.3 0.3
v 0.4 0.3 0.3
v 0.3 0.3 0.2
v 0.4 0.3 0.2
v -0.2 0.3 -0.5
v -0.1 0.3 -0.5
v -0.2 0.3 -0.6
v -0.1 0.3 -0.6
v -0.2 0.4 0.5
v -0.1 0.4 0.5
v -0.3 0.4 0.4
v -0.2 0.4 0.4
v -0.1 0.4 0.4
v 0.1 0.4 0.4
v 0.2 0.4 0.4
v -0.3 0.4 0.3
v -0.2 0.4 0.3
v 0.1 0.4 0.3
v 0.2 0.4 0.3
v -0.5 0.4 0.2
v -0.4 0.4 0.2
v 0.3 0.4 0.2
v 0.4 0.4 0.2
v -0.5 0.4 0.1
v -0.4 0.4 0.1
v 0.3 0.4 0.1
v 0.4 0.4 0.1
v -0.6 0.4 -0.2
v -0.5 0.4 -0.2
v -0.4 0.4 -0.2
v 0.3 0.4 -0.2
v 0.4 0.4 -0.2
v -0.6 0.4 -0.3
v -0.5 0.4 -0.3
v -0.4 0.4 -0.3
v 0.3 0.4 -0.3
v 0.4 0.4 -0.3
v -0.3 0.4 -0.4
v -0.2 0.4 -0.4
v 0.1 0.4 -0.4
v 0.2 0.4 -0.4
v 0.3 0.4 -0.4
v -0.3 0.4 -0.5
v -0.2 0.4 -0.5
v 0.1 0.4 -0.5
v 0.2 0.4 -0.5
v 0.3 0.4 -0.5
v -0.2 0.5 0.4
v 0.1 0.5 0.4
v -0.4 0.5 0.3
v -0.3 0.5 0.3
v -0.2 0.5 0.3
v 0.1 0.5 0.3
v 0.2 0.5 0.3
v 0.3 0.5 0.3
v -0.4 0.5 0.2
v -0.3 0.5 0.2
v 0.2 0.5 0.2
v 0.3 0.5 0.2
v -0.5 0.5 0.1
v -0.4 0.5 0.1
v 0.3 0.5 0.1
v 0.4 0.5 0.1
v -0.5 0.5 -0.2
v -0.4 0.5 -0.2
v 0.3 0.5 -0.2
v 0.4 0.5 -0.2
v -0.4 0.5 -0.3
v -0.3 0.5 -0.3
v 0.2 0.5 -0.3
v 0.3 0.5 -0.3
v -0.4 0.5 -0.4
v -0.3 0.5 -0.4
v -0.2 0.5 -0.4
v 0.1 0.5 -0.4
v 0.2 0.5 -0.4
v 0.3 0.5 -0.4
v -0.2 0.5 -0.5
v 0.1 0.5 -0.5
v -0.3 0.6 0.3
v 0.2 0.6 0.3
v -0.4 0.6 0.2
v -0.3 0.6 0.2
v -0.2 0.6 0.2
v 0.1 0.6 0.2
v 0.2 0.6 0.2
v 0.3 0.6 0.2
v -0.3 0.6 0.1
v -0.2 0.6 0.1
v 0.1 0.6 0.1
v 0.2 0.6 0.1
v -0.4 0.6 -0.1
v -0.3 0.6 -0.1
v -0.4 0.6 -0.2
v -0.3 0.6 -0.2
v -0.2 0.6 -0.2
v 0.1 0.6 -0.2
v 0.2 0.6 -0.2
v -0.4 0.6 -0.3
v -0.3 0.6 -0.3
v -0.2 0.6 -0.3
v 0.1 0.6 -0.3
v 0.2 0.6 -0.3
v 0.3 0.6 -0.3
v -0.3 0.6 -0.4
v 0.2 0.6 -0.4
v -0.2 0.7 0.2
v 0.1 0.7 0.2
v -0.3 0.7 0.1
v -0.2 0.7 0.1
v 0.1 0.7 0.1
v 0.2 0.7 0.1
v 0 0.7 0
v 0.1 0.7 0
v -0.4 0.7 -0.1
v -0.3 0.7 -0.1
v 0 0.7 -0.1
v 0.1 0.7 -0.1
v -0.4 0.7 -0.2
v -0.3 0.7 -0.2
v -0.2 0.7 -0.2
v 0.1 0.7 -0.2
v 0.2 0.7 -0.2
v -0.2 0.7 -0.3
v 0.1 0.7 -0.3
v 0 0.8 0
v 0.1 0.8 0
v 0 0.8 -0.1
v 0.1 0.8 -0.1

# faces
f 3/1/1 2/1/1 1/1/1
f 4/1/1 2/1/1 3/1/1
f 8/2/1 6/2/1 5/2/1
f 9/2/1 6/2/1 8/2/1
f 11/2/1 8/2/1 7/2/1
f 11/2/1 10/2/1 9/2/1
f 11/2/1 9/2/1 8/2/1
f 12/2/1 10/2/1 11/2/1
f 13/2/1 11/2/1 7/2/1
f 14/2/1 11/2/1 13/2/1
f 15/2/1 11/2/1 14/2/1
f 16/2/1 15/2/1 14/2/1
f 17/2/1 15/2/1 16/2/1
f 21/2/1 19/2/1 18/2/1
f 22/2/1 19/2/1 21/2/1
f 23/2/1 19/2/1 22/2/1
f 24/2/1 19/2/1 23/2/1
f 26/2/1 21/2/1 20/2/1
f 26/2/1 22/2/1 21/2/1
f 27/2/1 22/2/1 26/2/1
f 28/2/1 25/2/1 24/2/1
f 28/2/1 24/2/1 23/2/1
f 29/2/1 25/2/1 28/2/1
f 30/2/1 26/2/1 20/2/1
f 33/2/1 25/2/1 29/2/1
f 34/2/1 31/2/1 30/2/1
f 34/2/1 30/2/1 20/2/1
f 35/2/1 31/2/1 34/2/1
f 36/2/1 31/2/1 35/2/1
f 37/2/1 33/2/1 32/2/1
f 38/2/1 25/2/1 33/2/1
f 38/2/1 33/2/1 37/2/1
f 39/2/1 25/2/1 38/2/1
f 40/2/1 36/2/1 35/2/1
f 40/2/1 37/2/1 36/2/1
f 40/2/1 38/2/1 37/2/1
f 41/2/1 38/2/1 40/2/1
f 42/2/1 38/2/1 41/2/1
f 43/2/1 38/2/1 42/2/1
f 44/1/1 42/1/1 41/1/1
f 45/1/1 42/1/1 44/1/1
f 50/2/1 47/2/1 46/2/1
f 51/2/1 47/2/1 50/2/1
f 52/2/1 49/2/1 48/2/1
f 53/2/1 49/2/1 52/2/1
f 58/2/1 55/2/1 54/2/1
f 59/2/1 55/2/1 58/2/1
f 60/2/1 57/2/1 56/2/1
f 61/2/1 57/2/1 60/2/1
f 66/2/1 63/2/1 62/2/1
f 67/2/1 63/2/1 66/2/1
f 70/2/1 65/2/1 64/2/1
f 71/2/1 65/2/1 70/2/1
f 72/2/1 69/2/1 68/2/1
f 73/2/1 69/2/1 72/2/1
f 78/2/1 75/2/1 74/2/1
f 79/2/1 75/2/1 78/2/1
f 80/2/1 77/2/1 76/2/1
f 81/2/1 77/2/1 80/2/1
f 85/1/1 82/1/1 81/1/1
f 86/1/1 82/1/1 85/1/1
f 87/1/1 84/1/1 83/1/1
f 88/1/1 84/1/1 87/1/1
f 92/2/1 89/2/1 88/2/1
f 93/2/1 89/2/1 92/2/1
f 94/2/1 91/2/1 90/2/1
f 95/2/1 91/2/1 94/2/1
f 100/2/1 97/2/1 96/2/1
f 101/2/1 97/2/1 100/2/1
f 102/2/1 99/2/1 98/2/1
f 103/2/1 99/2/1 102/2/1
f 106/1/1 105/1/1 104/1/1
f 107/1/1 105/1/1 106/1/1
f 110/1/1 109/1/1 108/1/1
f 111/1/1 109/1/1 110/1/1
f 112/1/2 113/1/2 116/1/2
f 116/1/2 113/1/2 117/1/2
f 114/1/2 115/1/2 118/1/2
f 118/1/2 115/1/2 119/1/2
f 120/1/2 121/1/2 122/1/2
f 122/1/2 121/1/2 123/1/2
f 122/2/2 123/2/2 126/2/2
f 126/2/2 123/2/2 127/2/2
f 124/2/2 125/2/2 128/2/2
f 128/2/2 125/2/2 129/2/2
f 130/2/2 131/2/2 134/2/2
f 134/2/2 131/2/2 135/2/2
f 132/2/2 133/2/2 136/2/2
f 136/2/2 133/2/2 137/2/2
f 138/2/2 139/2/2 142/2/2
f 142/2/2 139/2/2 143/2/2
f 140/2/2 141/2/2 146/2/2
f 146/2/2 141/2/2 147/2/2
f 144/1/2 145/1/2 148/1/2
f 148/1/2 145/1/2 149/1/2
f 150/2/2 151/2/2 154/2/2
f 154/2/2 151/2/2 155/2/2
f 152/2/2 153/2/2 156/2/2
f 156/2/2 153/2/2 157/2/2
f 160/2/2 161/2/2 162/2/2
f 162/2/2 161/2/2 163/2/2
f 158/2/2 159/2/2 164/2/2
f 164/2/2 159/2/2 165/2/2
f 166/2/2 167/2/2 170/2/2
f 170/2/2 167/2/2 171/2/2
f 168/2/2 169/2/2 174/2/2
f 174/2/2 169/2/2 175/2/2
f 172/2/2 173/2/2 176/2/2
f 176/2/2 173/2/2 177/2/2
f 178/2/2 179/2/2 181/2/2
f 181/2/2 179/2/2 182/2/2
f 182/2/2 179/2/2 183/2/2
f 183/2/2 179/2/2 184/2/2
f 180/2/2 181/2/2 186/2/2
f 181/2/2 182/2/2 186/2/2
f 186/2/2 182/2/2 187/2/2
f 187/2/2 182/2/2 188/2/2
f 184/2/2 185/2/2 189/2/2
f 183/2/2 184/2/2 189/2/2
f 189/2/2 185/2/2 190/2/2
f 190/2/2 185/2/2 193/2/2
f 191/2/2 192/2/2 195/2/2
f 190/2/2 193/2/2 198/2/2
f 193/1/2 194/1/2 199/1/2
f 198/2/2 193/2/2 199/2/2
f 199/1/2 194/1/2 200/1/2
f 195/2/2 196/2/2 201/2/2
f 191/2/2 195/2/2 201/2/2
f 201/2/2 196/2/2 202/2/2
f 202/2/2 196/2/2 203/2/2
f 197/2/2 198/2/2 204/2/2
f 198/2/2 199/2/2 204/2/2
f 204/2/2 199/2/2 205/2/2
f 205/2/2 199/2/2 206/2/2
f 202/2/2 203/2/2 207/2/2
f 204/2/2 205/2/2 207/2/2
f 203/2/2 204/2/2 207/2/2
f 207/2/2 205/2/2 208/2/2
f 209/2/2 210/2/2 213/2/2
f 213/2/2 210/2/2 214/2/2
f 211/1/2 212/1/2 217/1/2
f 215/2/2 216/2/2 218/2/2
f 217/1/2 212/1/2 218/1/2
f 212/2/2 213/2/2 218/2/2
f 214/2/2 215/2/2 218/2/2
f 213/2/2 214/2/2 218/2/2
f 218/2/2 216/2/2 219/2/2
f 219/2/2 216/2/2 220/2/2
f 220/2/2 216/2/2 221/2/2
f 221/2/2 216/2/2 222/2/2
f 220/2/2 221/2/2 223/2/2
f 223/2/2 221/2/2 224/2/2
f 225/1/2 226/1/2 227/1/2
f 227/1/2 226/1/2 228/1/2
f 231/1/3 230/1/3 229/1/3
f 232/1/3 230/1/3 231/1/3
f 236/2/3 234/2/3 233/2/3
f 237/2/3 234/2/3 236/2/3
f 238/2/3 234/2/3 237/2/3
f 240/2/3 236/2/3 235/2/3
f 240/2/3 237/2/3 236/2/3
f 241/2/3 239/2/3 238/2/3
f 243/2/3 240/2/3 235/2/3
f 243/2/3 241/2/3 240/2/3
f 244/1/3 243/1/3 242/1/3
f 245/2/3 241/2/3 243/2/3
f 245/1/3 243/1/3 244/1/3
f 246/2/3 241/2/3 245/2/3
f 247/2/3 239/2/3 241/2/3
f 247/2/3 241/2/3 246/2/3
f 248/2/3 239/2/3 247/2/3
f 249/2/3 247/2/3 246/2/3
f 250/2/3 247/2/3 249/2/3
f 254/2/3 252/2/3 251/2/3
f 255/2/3 252/2/3 254/2/3
f 256/2/3 252/2/3 255/2/3
f 257/2/3 252/2/3 256/2/3
f 259/2/3 254/2/3 253/2/3
f 259/2/3 255/2/3 254/2/3
f 260/2/3 255/2/3 259/2/3
f 261/2/3 258/2/3 257/2/3
f 261/2/3 257/2/3 256/2/3
f 262/2/3 258/2/3 261/2/3
f 263/2/3 259/2/3 253/2/3
f 264/2/3 259/2/3 263/2/3
f 269/2/3 258/2/3 262/2/3
f 270/2/3 267/2/3 266/2/3
f 270/2/3 266/2/3 265/2/3
f 271/2/3 267/2/3 270/2/3
f 272/2/3 267/2/3 271/2/3
f 273/2/3 269/2/3 268/2/3
f 274/2/3 258/2/3 269/2/3
f 274/2/3 269/2/3 273/2/3
f 275/2/3 258/2/3 274/2/3
f 276/2/3 272/2/3 271/2/3
f 276/2/3 273/2/3 272/2/3
f 276/2/3 274/2/3 273/2/3
f 277/2/3 274/2/3 276/2/3
f 278/2/3 274/2/3 277/2/3
f 279/2/3 274/2/3 278/2/3
f 280/1/3 278/1/3 277/1/3
f 281/1/3 278/1/3 280/1/3
f 286/2/3 283/2/3 282/2/3
f 287/2/3 283/2/3 286/2/3
f 290/2/3 285/2/3 284/2/3
f 291/2/3 285/2/3 290/2/3
f 292/2/3 289/2/3 288/2/3
f 293/2/3 289/2/3 292/2/3
f 296/2/3 295/2/3 294/2/3
f 297/2/3 295/2/3 296/2/3
f 302/2/3 299/2/3 298/2/3
f 303/2/3 299/2/3 302/2/3
f 306/2/3 301/2/3 300/2/3
f 307/2/3 301/2/3 306/2/3
f 308/2/3 305/2/3 304/2/3
f 309/2/3 305/2/3 308/2/3
f 314/2/3 311/2/3 310/2/3
f 315/2/3 311/2/3 314/2/3
f 316/2/3 313/2/3 312/2/3
f 317/2/3 313/2/3 316/2/3
f 320/2/3 319/2/3 318/2/3
f 321/2/3 319/2/3 320/2/3
f 324/2/3 323/2/3 322/2/3
f 325/2/3 323/2/3 324/2/3
f 330/2/3 327/2/3 326/2/3
f 331/2/3 327/2/3 330/2/3
f 332/2/3 329/2/3 328/2/3
f 333/2/3 329/2/3 332/2/3
f 336/1/3 335/1/3 334/1/3
f 337/1/3 335/1/3 336/1/3
f 340/1/3 339/1/3 338/1/3
f 341/1/3 339/1/3 340/1/3
f 344/1/3 343/1/3 342/1/3
f 345/1/3 343/1/3 344/1/3
f 348/1/3 347/1/3 346/1/3
f 349/1/3 347/1/3 348/1/3
f 350/1/4 351/1/4 352/1/4
f 352/1/4 351/1/4 353/1/4
f 354/2/4 355/2/4 358/2/4
f 358/2/4 355/2/4 359/2/4
f 356/2/4 357/2/4 360/2/4
f 360/2/4 357/2/4 361/2/4
f 362/1/4 363/1/4 364/1/4
f 364/1/4 363/1/4 365/1/4
f 364/2/4 365/2/4 366/2/4
f 366/2/4 365/2/4 367/2/4
f 368/2/4 369/2/4 370/2/4
f 370/2/4 369/2/4 371/2/4
f 372/2/4 373/2/4 376/2/4
f 376/2/4 373/2/4 377/2/4
f 374/2/4 375/2/4 378/2/4
f 378/2/4 375/2/4 379/2/4
f 376/1/4 377/1/4 380/1/4
f 380/1/4 377/1/4 381/1/4
f 382/1/4 383/1/4 385/1/4
f 385/1/4 383/1/4 386/1/4
f 384/2/4 385/2/4 389/2/4
f 385/2/4 386/2/4 389/2/4
f 389/2/4 386/2/4 390/2/4
f 387/2/4 388/2/4 393/2/4
f 393/2/4 388/2/4 394/2/4
f 391/2/4 392/2/4 395/2/4
f 395/2/4 392/2/4 396/2/4
f 397/2/4 398/2/4 399/2/4
f 399/2/4 398/2/4 400/2/4
f 401/2/4 402/2/4 405/2/4
f 405/2/4 402/2/4 406/2/4
f 403/2/4 404/2/4 409/2/4
f 409/2/4 404/2/4 410/2/4
f 407/2/4 408/2/4 411/2/4
f 411/2/4 408/2/4 412/2/4
f 413/2/4 414/2/4 416/2/4
f 416/2/4 414/2/4 417/2/4
f 417/2/4 414/2/4 418/2/4
f 418/2/4 414/2/4 419/2/4
f 415/2/4 416/2/4 421/2/4
f 416/2/4 417/2/4 421/2/4
f 421/2/4 417/2/4 422/2/4
f 419/2/4 420/2/4 423/2/4
f 418/2/4 419/2/4 423/2/4
f 423/2/4 420/2/4 424/2/4
f 415/2/4 421/2/4 425/2/4
f 424/2/4 420/2/4 428/2/4
f 425/2/4 426/2/4 429/2/4
f 415/2/4 425/2/4 429/2/4
f 429/2/4 426/2/4 430/2/4
f 430/2/4 426/2/4 431/2/4
f 427/2/4 428/2/4 433/2/4
f 428/2/4 420/2/4 434/2/4
f 433/2/4 428/2/4 434/2/4
f 434/2/4 420/2/4 435/2/4
f 431/2/4 432/2/4 436/2/4
f 430/2/4 431/2/4 436/2/4
f 436/2/4 432/2/4 437/2/4
f 433/2/4 434/2/4 438/2/4
f 438/2/4 434/2/4 439/2/4
f 440/2/4 441/2/4 443/2/4
f 443/2/4 441/2/4 444/2/4
f 444/2/4 441/2/4 445/2/4
f 442/2/4 443/2/4 447/2/4
f 445/2/4 446/2/4 448/2/4
f 444/2/4 445/2/4 448/2/4
f 442/2/4 447/2/4 449/2/4
f 447/2/4 448/2/4 449/2/4
f 449/2/4 448/2/4 450/2/4
f 448/2/4 446/2/4 451/2/4
f 450/2/4 448/2/4 451/2/4
f 451/2/4 446/2/4 452/2/4
f 450/2/4 451/2/4 453/2/4
f 453/2/4 451/2/4 454/2/4
f 454/2/4 451/2/4 455/2/4
f 454/1/4 455/1/4 456/1/4
f 456/1/4 455/1/4 457/1/4
f 458/1/4 459/1/4 460/1/4
f 460/1/4 459/1/4 461/1/4
f 465/1/5 463/1/5 462/1/5
f 466/1/5 463/1/5 465/1/5
f 469/2/5 465/2/5 464/2/5
f 469/2/5 467/2/5 466/2/5
f 469/2/5 466/2/5 465/2/5
f 470/2/5 467/2/5 469/2/5
f 472/2/5 469/2/5 468/2/5
f 472/2/5 471/2/5 470/2/5
f 472/2/5 470/2/5 469/2/5
f 473/2/5 471/2/5 472/2/5
f 474/2/5 471/2/5 473/2/5
f 475/2/5 471/2/5 474/2/5
f 476/2/5 474/2/5 473/2/5
f 477/2/5 474/2/5 476/2/5
f 482/2/5 479/2/5 478/2/5
f 483/2/5 479/2/5 482/2/5
f 486/2/5 481/2/5 480/2/5
f 487/2/5 481/2/5 486/2/5
f 488/2/5 485/2/5 484/2/5
f 489/2/5 485/2/5 488/2/5
f 494/2/5 493/2/5 492/2/5
f 496/2/5 491/2/5 490/2/5
f 497/2/5 491/2/5 496/2/5
f 498/2/5 494/2/5 492/2/5
f 499/1/5 495/1/5 494/1/5
f 499/2/5 494/2/5 498/2/5
f 500/1/5 495/1/5 499/1/5
f 505/2/5 502/2/5 501/2/5
f 506/2/5 502/2/5 505/2/5
f 509/2/5 504/2/5 503/2/5
f 510/2/5 504/2/5 509/2/5
f 511/2/5 508/2/5 507/2/5
f 512/2/5 508/2/5 511/2/5
f 517/2/5 514/2/5 513/2/5
f 518/2/5 514/2/5 517/2/5
f 519/2/5 516/2/5 515/2/5
f 520/2/5 516/2/5 519/2/5
f 525/1/5 522/1/5 521/1/5
f 526/1/5 522/1/5 525/1/5
f 527/2/5 524/2/5 523/2/5
f 528/2/5 524/2/5 527/2/5
f 529/2/5 526/2/5 525/2/5
f 530/2/5 526/2/5 529/2/5
f 535/2/5 532/2/5 531/2/5
f 536/2/5 532/2/5 535/2/5
f 537/2/5 534/2/5 533/2/5
f 538/2/5 534/2/5 537/2/5
f 543/2/5 540/2/5 539/2/5
f 544/2/5 540/2/5 543/2/5
f 546/2/5 542/2/5 541/2/5
f 547/2/5 542/2/5 546/2/5
f 548/1/5 545/1/5 544/1/5
f 549/1/5 545/1/5 548/1/5
f 552/1/5 551/1/5 550/1/5
f 553/1/5 551/1/5 552/1/5
f 556/1/5 555/1/5 554/1/5
f 557/1/5 555/1/5 556/1/5
f 560/1/5 559/1/5 558/1/5
f 561/1/5 559/1/5 560/1/5
f 562/1/6 563/1/6 564/1/6
f 564/1/6 563/1/6 565/1/6
f 566/1/6 567/1/6 568/1/6
f 568/1/6 567/1/6 569/1/6
f 570/1/6 571/1/6 572/1/6
f 572/1/6 571/1/6 573/1/6
f 574/1/6 575/1/6 577/1/6
f 577/1/6 575/1/6 578/1/6
f 576/2/6 577/2/6 581/2/6
f 581/2/6 577/2/6 582/2/6
f 579/2/6 580/2/6 583/2/6
f 583/2/6 580/2/6 584/2/6
f 585/2/6 586/2/6 589/2/6
f 589/2/6 586/2/6 590/2/6
f 587/2/6 588/2/6 591/2/6
f 591/2/6 588/2/6 592/2/6
f 593/1/6 594/1/6 598/1/6
f 594/2/6 595/2/6 599/2/6
f 598/1/6 594/1/6 599/1/6
f 599/2/6 595/2/6 600/2/6
f 596/2/6 597/2/6 601/2/6
f 601/2/6 597/2/6 602/2/6
f 603/2/6 604/2/6 608/2/6
f 608/2/6 604/2/6 609/2/6
f 605/2/6 606/2/6 610/2/6
f 606/1/6 607/1/6 611/1/6
f 610/2/6 606/2/6 611/2/6
f 611/1/6 607/1/6 612/1/6
f 613/2/6 614/2/6 617/2/6
f 617/2/6 614/2/6 618/2/6
f 615/2/6 616/2/6 621/2/6
f 621/2/6 616/2/6 622/2/6
f 619/2/6 620/2/6 623/2/6
f 623/2/6 620/2/6 624/2/6
f 625/2/6 626/2/6 629/2/6
f 629/2/6 626/2/6 630/2/6
f 627/2/6 628/2/6 631/2/6
f 631/2/6 628/2/6 632/2/6
f 633/2/6 634/2/6 637/2/6
f 637/2/6 634/2/6 638/2/6
f 635/2/6 636/2/6 641/2/6
f 641/2/6 636/2/6 642/2/6
f 639/2/6 640/2/6 643/2/6
f 643/2/6 640/2/6 644/2/6
f 645/2/6 646/2/6 648/2/6
f 648/2/6 646/2/6 649/2/6
f 649/2/6 646/2/6 650/2/6
f 650/2/6 646/2/6 651/2/6
f 647/2/6 648/2/6 653/2/6
f 648/2/6 649/2/6 653/2/6
f 653/2/6 649/2/6 654/2/6
f 651/2/6 652/2/6 655/2/6
f 650/2/6 651/2/6 655/2/6
f 655/2/6 652/2/6 656/2/6
f 647/2/6 653/2/6 657/2/6
f 657/2/6 653/2/6 658/2/6
f 656/2/6 652/2/6 663/2/6
f 660/2/6 661/2/6 664/2/6
f 659/2/6 660/2/6 664/2/6
f 664/2/6 661/2/6 665/2/6
f 665/2/6 661/2/6 666/2/6
f 662/2/6 663/2/6 667/2/6
f 663/2/6 652/2/6 668/2/6
f 667/2/6 663/2/6 668/2/6
f 668/2/6 652/2/6 669/2/6
f 665/2/6 666/2/6 670/2/6
f 666/2/6 667/2/6 670/2/6
f 667/2/6 668/2/6 670/2/6
f 670/2/6 668/2/6 671/2/6
f 672/2/6 673/2/6 675/2/6
f 675/2/6 673/2/6 676/2/6
f 674/2/6 675/2/6 678/2/6
f 676/2/6 677/2/6 678/2/6
f 675/2/6 676/2/6 678/2/6
f 678/2/6 677/2/6 679/2/6
f 674/2/6 678/2/6 681/2/6
f 681/2/6 678/2/6 682/2/6
f 679/2/6 677/2/6 683/2/6
f 680/1/6 681/1/6 684/1/6
f 681/2/6 682/2/6 685/2/6
f 684/1/6 681/1/6 685/1/6
f 682/2/6 683/2/6 685/2/6
f 685/2/6 683/2/6 686/2/6
f 683/2/6 677/2/6 687/2/6
f 686/2/6 683/2/6 687/2/6
f 687/2/6 677/2/6 688/2/6
f 686/2/6 687/2/6 689/2/6
f 689/2/6 687/2/6 690/2/6
f 691/1/6 692/1/6 693/1/6
f 693/1/6 692/1/6 694/1/6
