# MagicaVoxel @ Ephtracy

# group
o 

# material
mtllib SimpleFlowers_Small.mtl
usemtl palette

# normals
vn -1 0 0
vn 1 0 0
vn 0 0 1
vn 0 0 -1
vn 0 -1 0
vn 0 1 0

# texcoords
vt 0.939453 0.5
vt 0.970703 0.5
vt 0.986328 0.5

# verts
v -0.7 0.2 -0.6
v -0.7 0.2 -0.7
v -0.7 0.3 -0.6
v -0.7 0.3 -0.7
v -0.6 0 -0.6
v -0.6 0 -0.7
v -0.6 0.2 -0.5
v -0.6 0.2 -0.6
v -0.6 0.2 -0.7
v -0.6 0.2 -0.8
v -0.6 0.3 -0.5
v -0.6 0.3 -0.6
v -0.6 0.3 -0.7
v -0.6 0.3 -0.8
v -0.1 0 0.6
v -0.1 0 0.5
v -0.1 0.1 0.6
v -0.1 0.1 0.5
v 0.4 0.1 -5.96046e-08
v 0.4 0.1 -0.1
v 0.4 0.2 -5.96046e-08
v 0.4 0.2 -0.1
v 0.5 0 -5.96046e-08
v 0.5 0 -0.1
v 0.5 0.1 0.0999999
v 0.5 0.1 -5.96046e-08
v 0.5 0.1 -0.1
v 0.5 0.1 -0.2
v 0.5 0.2 0.0999999
v 0.5 0.2 -5.96046e-08
v 0.5 0.2 -0.1
v 0.5 0.2 -0.2
v -0.5 0 -0.6
v -0.5 0 -0.7
v -0.5 0.2 -0.5
v -0.5 0.2 -0.6
v -0.5 0.2 -0.7
v -0.5 0.2 -0.8
v -0.5 0.3 -0.5
v -0.5 0.3 -0.6
v -0.5 0.3 -0.7
v -0.5 0.3 -0.8
v -0.4 0.2 -0.6
v -0.4 0.2 -0.7
v -0.4 0.3 -0.6
v -0.4 0.3 -0.7
v 5.96046e-08 0 0.6
v 5.96046e-08 0 0.5
v 5.96046e-08 0.1 0.6
v 5.96046e-08 0.1 0.5
v 0.6 0 -5.96046e-08
v 0.6 0 -0.1
v 0.6 0.1 0.0999999
v 0.6 0.1 -5.96046e-08
v 0.6 0.1 -0.1
v 0.6 0.1 -0.2
v 0.6 0.2 0.0999999
v 0.6 0.2 -5.96046e-08
v 0.6 0.2 -0.1
v 0.6 0.2 -0.2
v 0.7 0.1 -5.96046e-08
v 0.7 0.1 -0.1
v 0.7 0.2 -5.96046e-08
v 0.7 0.2 -0.1
v -0.1 0 0.6
v -0.1 0.1 0.6
v 5.96046e-08 0 0.6
v 5.96046e-08 0.1 0.6
v 0.5 0.1 0.0999999
v 0.5 0.2 0.0999999
v 0.6 0.1 0.0999999
v 0.6 0.2 0.0999999
v 0.4 0.1 -5.96046e-08
v 0.4 0.2 -5.96046e-08
v 0.5 0 -5.96046e-08
v 0.5 0.1 -5.96046e-08
v 0.5 0.2 -5.96046e-08
v 0.6 0 -5.96046e-08
v 0.6 0.1 -5.96046e-08
v 0.6 0.2 -5.96046e-08
v 0.7 0.1 -5.96046e-08
v 0.7 0.2 -5.96046e-08
v -0.6 0.2 -0.5
v -0.6 0.3 -0.5
v -0.5 0.2 -0.5
v -0.5 0.3 -0.5
v -0.7 0.2 -0.6
v -0.7 0.3 -0.6
v -0.6 0 -0.6
v -0.6 0.2 -0.6
v -0.6 0.3 -0.6
v -0.5 0 -0.6
v -0.5 0.2 -0.6
v -0.5 0.3 -0.6
v -0.4 0.2 -0.6
v -0.4 0.3 -0.6
v -0.1 0 0.5
v -0.1 0.1 0.5
v 5.96046e-08 0 0.5
v 5.96046e-08 0.1 0.5
v 0.4 0.1 -0.1
v 0.4 0.2 -0.1
v 0.5 0 -0.1
v 0.5 0.1 -0.1
v 0.5 0.2 -0.1
v 0.6 0 -0.1
v 0.6 0.1 -0.1
v 0.6 0.2 -0.1
v 0.7 0.1 -0.1
v 0.7 0.2 -0.1
v 0.5 0.1 -0.2
v 0.5 0.2 -0.2
v 0.6 0.1 -0.2
v 0.6 0.2 -0.2
v -0.7 0.2 -0.7
v -0.7 0.3 -0.7
v -0.6 0 -0.7
v -0.6 0.2 -0.7
v -0.6 0.3 -0.7
v -0.5 0 -0.7
v -0.5 0.2 -0.7
v -0.5 0.3 -0.7
v -0.4 0.2 -0.7
v -0.4 0.3 -0.7
v -0.6 0.2 -0.8
v -0.6 0.3 -0.8
v -0.5 0.2 -0.8
v -0.5 0.3 -0.8
v -0.1 0 0.6
v 5.96046e-08 0 0.6
v -0.1 0 0.5
v 5.96046e-08 0 0.5
v 0.5 0 -5.96046e-08
v 0.6 0 -5.96046e-08
v 0.5 0 -0.1
v 0.6 0 -0.1
v -0.6 0 -0.6
v -0.5 0 -0.6
v -0.6 0 -0.7
v -0.5 0 -0.7
v 0.5 0.1 0.0999999
v 0.6 0.1 0.0999999
v 0.4 0.1 -5.96046e-08
v 0.5 0.1 -5.96046e-08
v 0.6 0.1 -5.96046e-08
v 0.7 0.1 -5.96046e-08
v 0.4 0.1 -0.1
v 0.5 0.1 -0.1
v 0.6 0.1 -0.1
v 0.7 0.1 -0.1
v 0.5 0.1 -0.2
v 0.6 0.1 -0.2
v -0.6 0.2 -0.5
v -0.5 0.2 -0.5
v -0.7 0.2 -0.6
v -0.6 0.2 -0.6
v -0.5 0.2 -0.6
v -0.4 0.2 -0.6
v -0.7 0.2 -0.7
v -0.6 0.2 -0.7
v -0.5 0.2 -0.7
v -0.4 0.2 -0.7
v -0.6 0.2 -0.8
v -0.5 0.2 -0.8
v -0.1 0.1 0.6
v 5.96046e-08 0.1 0.6
v -0.1 0.1 0.5
v 5.96046e-08 0.1 0.5
v 0.5 0.2 0.0999999
v 0.6 0.2 0.0999999
v 0.4 0.2 -5.96046e-08
v 0.5 0.2 -5.96046e-08
v 0.6 0.2 -5.96046e-08
v 0.7 0.2 -5.96046e-08
v 0.4 0.2 -0.1
v 0.5 0.2 -0.1
v 0.6 0.2 -0.1
v 0.7 0.2 -0.1
v 0.5 0.2 -0.2
v 0.6 0.2 -0.2
v -0.6 0.3 -0.5
v -0.5 0.3 -0.5
v -0.7 0.3 -0.6
v -0.6 0.3 -0.6
v -0.5 0.3 -0.6
v -0.4 0.3 -0.6
v -0.7 0.3 -0.7
v -0.6 0.3 -0.7
v -0.5 0.3 -0.7
v -0.4 0.3 -0.7
v -0.6 0.3 -0.8
v -0.5 0.3 -0.8

# faces
f 3/3/1 2/3/1 1/3/1
f 4/3/1 2/3/1 3/3/1
f 8/2/1 6/2/1 5/2/1
f 9/2/1 6/2/1 8/2/1
f 11/3/1 8/3/1 7/3/1
f 12/3/1 8/3/1 11/3/1
f 13/3/1 10/3/1 9/3/1
f 14/3/1 10/3/1 13/3/1
f 17/2/1 16/2/1 15/2/1
f 18/2/1 16/2/1 17/2/1
f 21/3/1 20/3/1 19/3/1
f 22/3/1 20/3/1 21/3/1
f 26/2/1 24/2/1 23/2/1
f 27/2/1 24/2/1 26/2/1
f 29/3/1 26/3/1 25/3/1
f 30/3/1 26/3/1 29/3/1
f 31/3/1 28/3/1 27/3/1
f 32/3/1 28/3/1 31/3/1
f 33/2/2 34/2/2 36/2/2
f 36/2/2 34/2/2 37/2/2
f 35/3/2 36/3/2 39/3/2
f 39/3/2 36/3/2 40/3/2
f 37/3/2 38/3/2 41/3/2
f 41/3/2 38/3/2 42/3/2
f 43/3/2 44/3/2 45/3/2
f 45/3/2 44/3/2 46/3/2
f 47/2/2 48/2/2 49/2/2
f 49/2/2 48/2/2 50/2/2
f 51/2/2 52/2/2 54/2/2
f 54/2/2 52/2/2 55/2/2
f 53/3/2 54/3/2 57/3/2
f 57/3/2 54/3/2 58/3/2
f 55/3/2 56/3/2 59/3/2
f 59/3/2 56/3/2 60/3/2
f 61/3/2 62/3/2 63/3/2
f 63/3/2 62/3/2 64/3/2
f 67/2/3 66/2/3 65/2/3
f 68/2/3 66/2/3 67/2/3
f 71/3/3 70/3/3 69/3/3
f 72/3/3 70/3/3 71/3/3
f 76/3/3 74/3/3 73/3/3
f 77/3/3 74/3/3 76/3/3
f 78/2/3 76/2/3 75/2/3
f 79/2/3 76/2/3 78/2/3
f 81/3/3 80/3/3 79/3/3
f 82/3/3 80/3/3 81/3/3
f 85/3/3 84/3/3 83/3/3
f 86/3/3 84/3/3 85/3/3
f 90/3/3 88/3/3 87/3/3
f 91/3/3 88/3/3 90/3/3
f 92/2/3 90/2/3 89/2/3
f 93/2/3 90/2/3 92/2/3
f 95/3/3 94/3/3 93/3/3
f 96/3/3 94/3/3 95/3/3
f 97/2/4 98/2/4 99/2/4
f 99/2/4 98/2/4 100/2/4
f 101/3/4 102/3/4 104/3/4
f 104/3/4 102/3/4 105/3/4
f 103/2/4 104/2/4 106/2/4
f 106/2/4 104/2/4 107/2/4
f 107/3/4 108/3/4 109/3/4
f 109/3/4 108/3/4 110/3/4
f 111/3/4 112/3/4 113/3/4
f 113/3/4 112/3/4 114/3/4
f 115/3/4 116/3/4 118/3/4
f 118/3/4 116/3/4 119/3/4
f 117/2/4 118/2/4 120/2/4
f 120/2/4 118/2/4 121/2/4
f 121/3/4 122/3/4 123/3/4
f 123/3/4 122/3/4 124/3/4
f 125/3/4 126/3/4 127/3/4
f 127/3/4 126/3/4 128/3/4
f 131/2/5 130/2/5 129/2/5
f 132/2/5 130/2/5 131/2/5
f 135/2/5 134/2/5 133/2/5
f 136/2/5 134/2/5 135/2/5
f 139/2/5 138/2/5 137/2/5
f 140/2/5 138/2/5 139/2/5
f 144/3/5 142/3/5 141/3/5
f 145/3/5 142/3/5 144/3/5
f 147/3/5 144/3/5 143/3/5
f 148/3/5 144/3/5 147/3/5
f 149/3/5 146/3/5 145/3/5
f 150/3/5 146/3/5 149/3/5
f 151/3/5 149/3/5 148/3/5
f 152/3/5 149/3/5 151/3/5
f 156/3/5 154/3/5 153/3/5
f 157/3/5 154/3/5 156/3/5
f 159/3/5 156/3/5 155/3/5
f 160/3/5 156/3/5 159/3/5
f 161/3/5 158/3/5 157/3/5
f 162/3/5 158/3/5 161/3/5
f 163/3/5 161/3/5 160/3/5
f 164/3/5 161/3/5 163/3/5
f 165/2/6 166/2/6 167/2/6
f 167/2/6 166/2/6 168/2/6
f 169/3/6 170/3/6 172/3/6
f 172/3/6 170/3/6 173/3/6
f 171/3/6 172/3/6 175/3/6
f 172/1/6 173/1/6 176/1/6
f 175/3/6 172/3/6 176/3/6
f 173/3/6 174/3/6 177/3/6
f 176/1/6 173/1/6 177/1/6
f 177/3/6 174/3/6 178/3/6
f 176/3/6 177/3/6 179/3/6
f 179/3/6 177/3/6 180/3/6
f 181/3/6 182/3/6 184/3/6
f 184/3/6 182/3/6 185/3/6
f 183/3/6 184/3/6 187/3/6
f 184/1/6 185/1/6 188/1/6
f 187/3/6 184/3/6 188/3/6
f 185/3/6 186/3/6 189/3/6
f 188/1/6 185/1/6 189/1/6
f 189/3/6 186/3/6 190/3/6
f 188/3/6 189/3/6 191/3/6
f 191/3/6 189/3/6 192/3/6
